<mxfile host="app.diagrams.net" modified="2020-11-10T06:25:39.713Z" agent="5.0 (Windows NT 10.0; Win64; x64) AppleWebKit/537.36 (KHTML, like Gecko) Chrome/86.0.4240.193 Safari/537.36" etag="YsFeJ3Nagca4LbMEfPZk" version="13.9.2" type="github">
  <diagram id="R2lEEEUBdFMjLlhIrx00" name="Page-1">
    <mxGraphModel dx="782" dy="469" grid="1" gridSize="10" guides="1" tooltips="1" connect="1" arrows="1" fold="1" page="1" pageScale="1" pageWidth="850" pageHeight="1100" math="0" shadow="0" extFonts="Permanent Marker^https://fonts.googleapis.com/css?family=Permanent+Marker">
      <root>
        <mxCell id="0" />
        <mxCell id="1" parent="0" />
        <mxCell id="NXrxL5UkEjWbUpOR8VNK-1" value="" style="edgeStyle=entityRelationEdgeStyle;endArrow=ERzeroToMany;startArrow=ERone;endFill=1;startFill=0;" edge="1" parent="1" source="NXrxL5UkEjWbUpOR8VNK-43" target="NXrxL5UkEjWbUpOR8VNK-6">
          <mxGeometry width="100" height="100" relative="1" as="geometry">
            <mxPoint x="340" y="720" as="sourcePoint" />
            <mxPoint x="440" y="620" as="targetPoint" />
          </mxGeometry>
        </mxCell>
        <mxCell id="NXrxL5UkEjWbUpOR8VNK-2" value="stk.step.trans.in.line1" style="shape=table;startSize=30;container=1;collapsible=1;childLayout=tableLayout;fixedRows=1;rowLines=0;fontStyle=1;align=center;resizeLast=1;" vertex="1" parent="1">
          <mxGeometry x="260" y="30" width="250" height="580" as="geometry" />
        </mxCell>
        <mxCell id="NXrxL5UkEjWbUpOR8VNK-3" value="" style="shape=partialRectangle;collapsible=0;dropTarget=0;pointerEvents=0;fillColor=none;points=[[0,0.5],[1,0.5]];portConstraint=eastwest;top=0;left=0;right=0;bottom=1;" vertex="1" parent="NXrxL5UkEjWbUpOR8VNK-2">
          <mxGeometry y="30" width="250" height="30" as="geometry" />
        </mxCell>
        <mxCell id="NXrxL5UkEjWbUpOR8VNK-4" value="PK" style="shape=partialRectangle;overflow=hidden;connectable=0;fillColor=none;top=0;left=0;bottom=0;right=0;fontStyle=1;" vertex="1" parent="NXrxL5UkEjWbUpOR8VNK-3">
          <mxGeometry width="30" height="30" as="geometry" />
        </mxCell>
        <mxCell id="NXrxL5UkEjWbUpOR8VNK-5" value="id" style="shape=partialRectangle;overflow=hidden;connectable=0;fillColor=none;top=0;left=0;bottom=0;right=0;align=left;spacingLeft=6;fontStyle=5;" vertex="1" parent="NXrxL5UkEjWbUpOR8VNK-3">
          <mxGeometry x="30" width="220" height="30" as="geometry" />
        </mxCell>
        <mxCell id="NXrxL5UkEjWbUpOR8VNK-6" value="" style="shape=partialRectangle;collapsible=0;dropTarget=0;pointerEvents=0;fillColor=none;points=[[0,0.5],[1,0.5]];portConstraint=eastwest;top=0;left=0;right=0;bottom=0;" vertex="1" parent="NXrxL5UkEjWbUpOR8VNK-2">
          <mxGeometry y="60" width="250" height="30" as="geometry" />
        </mxCell>
        <mxCell id="NXrxL5UkEjWbUpOR8VNK-7" value="" style="shape=partialRectangle;overflow=hidden;connectable=0;fillColor=none;top=0;left=0;bottom=0;right=0;" vertex="1" parent="NXrxL5UkEjWbUpOR8VNK-6">
          <mxGeometry width="30" height="30" as="geometry" />
        </mxCell>
        <mxCell id="NXrxL5UkEjWbUpOR8VNK-8" value="parent_id" style="shape=partialRectangle;overflow=hidden;connectable=0;fillColor=none;top=0;left=0;bottom=0;right=0;align=left;spacingLeft=6;" vertex="1" parent="NXrxL5UkEjWbUpOR8VNK-6">
          <mxGeometry x="30" width="220" height="30" as="geometry" />
        </mxCell>
        <mxCell id="NXrxL5UkEjWbUpOR8VNK-9" value="" style="shape=partialRectangle;collapsible=0;dropTarget=0;pointerEvents=0;fillColor=none;points=[[0,0.5],[1,0.5]];portConstraint=eastwest;top=0;left=0;right=0;bottom=0;" vertex="1" parent="NXrxL5UkEjWbUpOR8VNK-2">
          <mxGeometry y="90" width="250" height="30" as="geometry" />
        </mxCell>
        <mxCell id="NXrxL5UkEjWbUpOR8VNK-10" value="" style="shape=partialRectangle;overflow=hidden;connectable=0;fillColor=none;top=0;left=0;bottom=0;right=0;" vertex="1" parent="NXrxL5UkEjWbUpOR8VNK-9">
          <mxGeometry width="30" height="30" as="geometry" />
        </mxCell>
        <mxCell id="NXrxL5UkEjWbUpOR8VNK-11" value="库存单位" style="shape=partialRectangle;overflow=hidden;connectable=0;fillColor=none;top=0;left=0;bottom=0;right=0;align=left;spacingLeft=6;" vertex="1" parent="NXrxL5UkEjWbUpOR8VNK-9">
          <mxGeometry x="30" width="220" height="30" as="geometry" />
        </mxCell>
        <mxCell id="NXrxL5UkEjWbUpOR8VNK-12" value="" style="shape=partialRectangle;collapsible=0;dropTarget=0;pointerEvents=0;fillColor=none;points=[[0,0.5],[1,0.5]];portConstraint=eastwest;top=0;left=0;right=0;bottom=0;" vertex="1" parent="NXrxL5UkEjWbUpOR8VNK-2">
          <mxGeometry y="120" width="250" height="30" as="geometry" />
        </mxCell>
        <mxCell id="NXrxL5UkEjWbUpOR8VNK-13" value="" style="shape=partialRectangle;overflow=hidden;connectable=0;fillColor=none;top=0;left=0;bottom=0;right=0;" vertex="1" parent="NXrxL5UkEjWbUpOR8VNK-12">
          <mxGeometry width="30" height="30" as="geometry" />
        </mxCell>
        <mxCell id="NXrxL5UkEjWbUpOR8VNK-14" value="调拨数量" style="shape=partialRectangle;overflow=hidden;connectable=0;fillColor=none;top=0;left=0;bottom=0;right=0;align=left;spacingLeft=6;" vertex="1" parent="NXrxL5UkEjWbUpOR8VNK-12">
          <mxGeometry x="30" width="220" height="30" as="geometry" />
        </mxCell>
        <mxCell id="NXrxL5UkEjWbUpOR8VNK-15" value="" style="shape=partialRectangle;collapsible=0;dropTarget=0;pointerEvents=0;fillColor=none;points=[[0,0.5],[1,0.5]];portConstraint=eastwest;top=0;left=0;right=0;bottom=0;" vertex="1" parent="NXrxL5UkEjWbUpOR8VNK-2">
          <mxGeometry y="150" width="250" height="30" as="geometry" />
        </mxCell>
        <mxCell id="NXrxL5UkEjWbUpOR8VNK-16" value="" style="shape=partialRectangle;overflow=hidden;connectable=0;fillColor=none;top=0;left=0;bottom=0;right=0;" vertex="1" parent="NXrxL5UkEjWbUpOR8VNK-15">
          <mxGeometry width="30" height="30" as="geometry" />
        </mxCell>
        <mxCell id="NXrxL5UkEjWbUpOR8VNK-17" value="调出仓库" style="shape=partialRectangle;overflow=hidden;connectable=0;fillColor=none;top=0;left=0;bottom=0;right=0;align=left;spacingLeft=6;" vertex="1" parent="NXrxL5UkEjWbUpOR8VNK-15">
          <mxGeometry x="30" width="220" height="30" as="geometry" />
        </mxCell>
        <mxCell id="NXrxL5UkEjWbUpOR8VNK-18" value="" style="shape=partialRectangle;collapsible=0;dropTarget=0;pointerEvents=0;fillColor=none;points=[[0,0.5],[1,0.5]];portConstraint=eastwest;top=0;left=0;right=0;bottom=0;" vertex="1" parent="NXrxL5UkEjWbUpOR8VNK-2">
          <mxGeometry y="180" width="250" height="30" as="geometry" />
        </mxCell>
        <mxCell id="NXrxL5UkEjWbUpOR8VNK-19" value="" style="shape=partialRectangle;overflow=hidden;connectable=0;fillColor=none;top=0;left=0;bottom=0;right=0;" vertex="1" parent="NXrxL5UkEjWbUpOR8VNK-18">
          <mxGeometry width="30" height="30" as="geometry" />
        </mxCell>
        <mxCell id="NXrxL5UkEjWbUpOR8VNK-20" value="调出仓位" style="shape=partialRectangle;overflow=hidden;connectable=0;fillColor=none;top=0;left=0;bottom=0;right=0;align=left;spacingLeft=6;" vertex="1" parent="NXrxL5UkEjWbUpOR8VNK-18">
          <mxGeometry x="30" width="220" height="30" as="geometry" />
        </mxCell>
        <mxCell id="NXrxL5UkEjWbUpOR8VNK-21" value="" style="shape=partialRectangle;collapsible=0;dropTarget=0;pointerEvents=0;fillColor=none;points=[[0,0.5],[1,0.5]];portConstraint=eastwest;top=0;left=0;right=0;bottom=0;" vertex="1" parent="NXrxL5UkEjWbUpOR8VNK-2">
          <mxGeometry y="210" width="250" height="30" as="geometry" />
        </mxCell>
        <mxCell id="NXrxL5UkEjWbUpOR8VNK-22" value="" style="shape=partialRectangle;overflow=hidden;connectable=0;fillColor=none;top=0;left=0;bottom=0;right=0;" vertex="1" parent="NXrxL5UkEjWbUpOR8VNK-21">
          <mxGeometry width="30" height="30" as="geometry" />
        </mxCell>
        <mxCell id="NXrxL5UkEjWbUpOR8VNK-23" value="调出库存状态" style="shape=partialRectangle;overflow=hidden;connectable=0;fillColor=none;top=0;left=0;bottom=0;right=0;align=left;spacingLeft=6;" vertex="1" parent="NXrxL5UkEjWbUpOR8VNK-21">
          <mxGeometry x="30" width="220" height="30" as="geometry" />
        </mxCell>
        <mxCell id="NXrxL5UkEjWbUpOR8VNK-24" value="" style="shape=partialRectangle;collapsible=0;dropTarget=0;pointerEvents=0;fillColor=none;points=[[0,0.5],[1,0.5]];portConstraint=eastwest;top=0;left=0;right=0;bottom=0;" vertex="1" parent="NXrxL5UkEjWbUpOR8VNK-2">
          <mxGeometry y="240" width="250" height="30" as="geometry" />
        </mxCell>
        <mxCell id="NXrxL5UkEjWbUpOR8VNK-25" value="" style="shape=partialRectangle;overflow=hidden;connectable=0;fillColor=none;top=0;left=0;bottom=0;right=0;" vertex="1" parent="NXrxL5UkEjWbUpOR8VNK-24">
          <mxGeometry width="30" height="30" as="geometry" />
        </mxCell>
        <mxCell id="NXrxL5UkEjWbUpOR8VNK-26" value="调入库存状态" style="shape=partialRectangle;overflow=hidden;connectable=0;fillColor=none;top=0;left=0;bottom=0;right=0;align=left;spacingLeft=6;" vertex="1" parent="NXrxL5UkEjWbUpOR8VNK-24">
          <mxGeometry x="30" width="220" height="30" as="geometry" />
        </mxCell>
        <mxCell id="NXrxL5UkEjWbUpOR8VNK-27" value="" style="shape=partialRectangle;collapsible=0;dropTarget=0;pointerEvents=0;fillColor=none;points=[[0,0.5],[1,0.5]];portConstraint=eastwest;top=0;left=0;right=0;bottom=0;" vertex="1" parent="NXrxL5UkEjWbUpOR8VNK-2">
          <mxGeometry y="270" width="250" height="30" as="geometry" />
        </mxCell>
        <mxCell id="NXrxL5UkEjWbUpOR8VNK-28" value="" style="shape=partialRectangle;overflow=hidden;connectable=0;fillColor=none;top=0;left=0;bottom=0;right=0;" vertex="1" parent="NXrxL5UkEjWbUpOR8VNK-27">
          <mxGeometry width="30" height="30" as="geometry" />
        </mxCell>
        <mxCell id="NXrxL5UkEjWbUpOR8VNK-29" value="调入仓位" style="shape=partialRectangle;overflow=hidden;connectable=0;fillColor=none;top=0;left=0;bottom=0;right=0;align=left;spacingLeft=6;" vertex="1" parent="NXrxL5UkEjWbUpOR8VNK-27">
          <mxGeometry x="30" width="220" height="30" as="geometry" />
        </mxCell>
        <mxCell id="NXrxL5UkEjWbUpOR8VNK-30" value="" style="shape=partialRectangle;collapsible=0;dropTarget=0;pointerEvents=0;fillColor=none;points=[[0,0.5],[1,0.5]];portConstraint=eastwest;top=0;left=0;right=0;bottom=0;" vertex="1" parent="NXrxL5UkEjWbUpOR8VNK-2">
          <mxGeometry y="300" width="250" height="30" as="geometry" />
        </mxCell>
        <mxCell id="NXrxL5UkEjWbUpOR8VNK-31" value="" style="shape=partialRectangle;overflow=hidden;connectable=0;fillColor=none;top=0;left=0;bottom=0;right=0;" vertex="1" parent="NXrxL5UkEjWbUpOR8VNK-30">
          <mxGeometry width="30" height="30" as="geometry" />
        </mxCell>
        <mxCell id="NXrxL5UkEjWbUpOR8VNK-32" value="调入仓库" style="shape=partialRectangle;overflow=hidden;connectable=0;fillColor=none;top=0;left=0;bottom=0;right=0;align=left;spacingLeft=6;" vertex="1" parent="NXrxL5UkEjWbUpOR8VNK-30">
          <mxGeometry x="30" width="220" height="30" as="geometry" />
        </mxCell>
        <mxCell id="NXrxL5UkEjWbUpOR8VNK-33" value="" style="shape=partialRectangle;collapsible=0;dropTarget=0;pointerEvents=0;fillColor=none;points=[[0,0.5],[1,0.5]];portConstraint=eastwest;top=0;left=0;right=0;bottom=0;" vertex="1" parent="NXrxL5UkEjWbUpOR8VNK-2">
          <mxGeometry y="330" width="250" height="30" as="geometry" />
        </mxCell>
        <mxCell id="NXrxL5UkEjWbUpOR8VNK-34" value="" style="shape=partialRectangle;overflow=hidden;connectable=0;fillColor=none;top=0;left=0;bottom=0;right=0;" vertex="1" parent="NXrxL5UkEjWbUpOR8VNK-33">
          <mxGeometry width="30" height="30" as="geometry" />
        </mxCell>
        <mxCell id="NXrxL5UkEjWbUpOR8VNK-35" value="调出货主" style="shape=partialRectangle;overflow=hidden;connectable=0;fillColor=none;top=0;left=0;bottom=0;right=0;align=left;spacingLeft=6;" vertex="1" parent="NXrxL5UkEjWbUpOR8VNK-33">
          <mxGeometry x="30" width="220" height="30" as="geometry" />
        </mxCell>
        <mxCell id="NXrxL5UkEjWbUpOR8VNK-36" value="" style="shape=partialRectangle;collapsible=0;dropTarget=0;pointerEvents=0;fillColor=none;points=[[0,0.5],[1,0.5]];portConstraint=eastwest;top=0;left=0;right=0;bottom=0;" vertex="1" parent="NXrxL5UkEjWbUpOR8VNK-2">
          <mxGeometry y="360" width="250" height="30" as="geometry" />
        </mxCell>
        <mxCell id="NXrxL5UkEjWbUpOR8VNK-37" value="" style="shape=partialRectangle;overflow=hidden;connectable=0;fillColor=none;top=0;left=0;bottom=0;right=0;" vertex="1" parent="NXrxL5UkEjWbUpOR8VNK-36">
          <mxGeometry width="30" height="30" as="geometry" />
        </mxCell>
        <mxCell id="NXrxL5UkEjWbUpOR8VNK-38" value="调入货主" style="shape=partialRectangle;overflow=hidden;connectable=0;fillColor=none;top=0;left=0;bottom=0;right=0;align=left;spacingLeft=6;" vertex="1" parent="NXrxL5UkEjWbUpOR8VNK-36">
          <mxGeometry x="30" width="220" height="30" as="geometry" />
        </mxCell>
        <mxCell id="NXrxL5UkEjWbUpOR8VNK-39" value="" style="shape=partialRectangle;collapsible=0;dropTarget=0;pointerEvents=0;fillColor=none;points=[[0,0.5],[1,0.5]];portConstraint=eastwest;top=0;left=0;right=0;bottom=0;" vertex="1" parent="NXrxL5UkEjWbUpOR8VNK-2">
          <mxGeometry y="390" width="250" height="30" as="geometry" />
        </mxCell>
        <mxCell id="NXrxL5UkEjWbUpOR8VNK-40" value="" style="shape=partialRectangle;overflow=hidden;connectable=0;fillColor=none;top=0;left=0;bottom=0;right=0;" vertex="1" parent="NXrxL5UkEjWbUpOR8VNK-39">
          <mxGeometry width="30" height="30" as="geometry" />
        </mxCell>
        <mxCell id="NXrxL5UkEjWbUpOR8VNK-41" value="物料编号" style="shape=partialRectangle;overflow=hidden;connectable=0;fillColor=none;top=0;left=0;bottom=0;right=0;align=left;spacingLeft=6;" vertex="1" parent="NXrxL5UkEjWbUpOR8VNK-39">
          <mxGeometry x="30" width="220" height="30" as="geometry" />
        </mxCell>
        <mxCell id="NXrxL5UkEjWbUpOR8VNK-70" value="" style="shape=partialRectangle;collapsible=0;dropTarget=0;pointerEvents=0;fillColor=none;points=[[0,0.5],[1,0.5]];portConstraint=eastwest;top=0;left=0;right=0;bottom=0;" vertex="1" parent="NXrxL5UkEjWbUpOR8VNK-2">
          <mxGeometry y="420" width="250" height="30" as="geometry" />
        </mxCell>
        <mxCell id="NXrxL5UkEjWbUpOR8VNK-71" value="" style="shape=partialRectangle;overflow=hidden;connectable=0;fillColor=none;top=0;left=0;bottom=0;right=0;" vertex="1" parent="NXrxL5UkEjWbUpOR8VNK-70">
          <mxGeometry width="30" height="30" as="geometry" />
        </mxCell>
        <mxCell id="NXrxL5UkEjWbUpOR8VNK-72" value="途损责任方" style="shape=partialRectangle;overflow=hidden;connectable=0;fillColor=none;top=0;left=0;bottom=0;right=0;align=left;spacingLeft=6;" vertex="1" parent="NXrxL5UkEjWbUpOR8VNK-70">
          <mxGeometry x="30" width="220" height="30" as="geometry" />
        </mxCell>
        <mxCell id="NXrxL5UkEjWbUpOR8VNK-73" value="" style="shape=partialRectangle;collapsible=0;dropTarget=0;pointerEvents=0;fillColor=none;points=[[0,0.5],[1,0.5]];portConstraint=eastwest;top=0;left=0;right=0;bottom=0;" vertex="1" parent="NXrxL5UkEjWbUpOR8VNK-2">
          <mxGeometry y="450" width="250" height="30" as="geometry" />
        </mxCell>
        <mxCell id="NXrxL5UkEjWbUpOR8VNK-74" value="" style="shape=partialRectangle;overflow=hidden;connectable=0;fillColor=none;top=0;left=0;bottom=0;right=0;" vertex="1" parent="NXrxL5UkEjWbUpOR8VNK-73">
          <mxGeometry width="30" height="30" as="geometry" />
        </mxCell>
        <mxCell id="NXrxL5UkEjWbUpOR8VNK-75" value="结算数量" style="shape=partialRectangle;overflow=hidden;connectable=0;fillColor=none;top=0;left=0;bottom=0;right=0;align=left;spacingLeft=6;" vertex="1" parent="NXrxL5UkEjWbUpOR8VNK-73">
          <mxGeometry x="30" width="220" height="30" as="geometry" />
        </mxCell>
        <mxCell id="NXrxL5UkEjWbUpOR8VNK-76" value="" style="shape=partialRectangle;collapsible=0;dropTarget=0;pointerEvents=0;fillColor=none;points=[[0,0.5],[1,0.5]];portConstraint=eastwest;top=0;left=0;right=0;bottom=0;" vertex="1" parent="NXrxL5UkEjWbUpOR8VNK-2">
          <mxGeometry y="480" width="250" height="30" as="geometry" />
        </mxCell>
        <mxCell id="NXrxL5UkEjWbUpOR8VNK-77" value="" style="shape=partialRectangle;overflow=hidden;connectable=0;fillColor=none;top=0;left=0;bottom=0;right=0;" vertex="1" parent="NXrxL5UkEjWbUpOR8VNK-76">
          <mxGeometry width="30" height="30" as="geometry" />
        </mxCell>
        <mxCell id="NXrxL5UkEjWbUpOR8VNK-78" value="途损数量" style="shape=partialRectangle;overflow=hidden;connectable=0;fillColor=none;top=0;left=0;bottom=0;right=0;align=left;spacingLeft=6;" vertex="1" parent="NXrxL5UkEjWbUpOR8VNK-76">
          <mxGeometry x="30" width="220" height="30" as="geometry" />
        </mxCell>
        <mxCell id="NXrxL5UkEjWbUpOR8VNK-79" value="" style="shape=partialRectangle;collapsible=0;dropTarget=0;pointerEvents=0;fillColor=none;points=[[0,0.5],[1,0.5]];portConstraint=eastwest;top=0;left=0;right=0;bottom=0;" vertex="1" parent="NXrxL5UkEjWbUpOR8VNK-2">
          <mxGeometry y="510" width="250" height="30" as="geometry" />
        </mxCell>
        <mxCell id="NXrxL5UkEjWbUpOR8VNK-80" value="" style="shape=partialRectangle;overflow=hidden;connectable=0;fillColor=none;top=0;left=0;bottom=0;right=0;" vertex="1" parent="NXrxL5UkEjWbUpOR8VNK-79">
          <mxGeometry width="30" height="30" as="geometry" />
        </mxCell>
        <mxCell id="NXrxL5UkEjWbUpOR8VNK-81" value="是否生成结算单" style="shape=partialRectangle;overflow=hidden;connectable=0;fillColor=none;top=0;left=0;bottom=0;right=0;align=left;spacingLeft=6;" vertex="1" parent="NXrxL5UkEjWbUpOR8VNK-79">
          <mxGeometry x="30" width="220" height="30" as="geometry" />
        </mxCell>
        <mxCell id="NXrxL5UkEjWbUpOR8VNK-82" value="" style="shape=partialRectangle;collapsible=0;dropTarget=0;pointerEvents=0;fillColor=none;points=[[0,0.5],[1,0.5]];portConstraint=eastwest;top=0;left=0;right=0;bottom=0;" vertex="1" parent="NXrxL5UkEjWbUpOR8VNK-2">
          <mxGeometry y="540" width="250" height="30" as="geometry" />
        </mxCell>
        <mxCell id="NXrxL5UkEjWbUpOR8VNK-83" value="" style="shape=partialRectangle;overflow=hidden;connectable=0;fillColor=none;top=0;left=0;bottom=0;right=0;" vertex="1" parent="NXrxL5UkEjWbUpOR8VNK-82">
          <mxGeometry width="30" height="30" as="geometry" />
        </mxCell>
        <mxCell id="NXrxL5UkEjWbUpOR8VNK-84" value="是否组织间交易" style="shape=partialRectangle;overflow=hidden;connectable=0;fillColor=none;top=0;left=0;bottom=0;right=0;align=left;spacingLeft=6;" vertex="1" parent="NXrxL5UkEjWbUpOR8VNK-82">
          <mxGeometry x="30" width="220" height="30" as="geometry" />
        </mxCell>
        <mxCell id="NXrxL5UkEjWbUpOR8VNK-42" value="stk.step.trans.in" style="shape=table;startSize=30;container=1;collapsible=1;childLayout=tableLayout;fixedRows=1;rowLines=0;fontStyle=1;align=center;resizeLast=1;" vertex="1" parent="1">
          <mxGeometry x="30" y="60" width="170" height="330" as="geometry" />
        </mxCell>
        <mxCell id="NXrxL5UkEjWbUpOR8VNK-43" value="" style="shape=partialRectangle;collapsible=0;dropTarget=0;pointerEvents=0;fillColor=none;points=[[0,0.5],[1,0.5]];portConstraint=eastwest;top=0;left=0;right=0;bottom=1;" vertex="1" parent="NXrxL5UkEjWbUpOR8VNK-42">
          <mxGeometry y="30" width="170" height="30" as="geometry" />
        </mxCell>
        <mxCell id="NXrxL5UkEjWbUpOR8VNK-44" value="PK" style="shape=partialRectangle;overflow=hidden;connectable=0;fillColor=none;top=0;left=0;bottom=0;right=0;fontStyle=1;" vertex="1" parent="NXrxL5UkEjWbUpOR8VNK-43">
          <mxGeometry width="30" height="30" as="geometry" />
        </mxCell>
        <mxCell id="NXrxL5UkEjWbUpOR8VNK-45" value="id" style="shape=partialRectangle;overflow=hidden;connectable=0;fillColor=none;top=0;left=0;bottom=0;right=0;align=left;spacingLeft=6;fontStyle=5;" vertex="1" parent="NXrxL5UkEjWbUpOR8VNK-43">
          <mxGeometry x="30" width="140" height="30" as="geometry" />
        </mxCell>
        <mxCell id="NXrxL5UkEjWbUpOR8VNK-46" value="" style="shape=partialRectangle;collapsible=0;dropTarget=0;pointerEvents=0;fillColor=none;points=[[0,0.5],[1,0.5]];portConstraint=eastwest;top=0;left=0;right=0;bottom=0;" vertex="1" parent="NXrxL5UkEjWbUpOR8VNK-42">
          <mxGeometry y="60" width="170" height="30" as="geometry" />
        </mxCell>
        <mxCell id="NXrxL5UkEjWbUpOR8VNK-47" value="" style="shape=partialRectangle;overflow=hidden;connectable=0;fillColor=none;top=0;left=0;bottom=0;right=0;" vertex="1" parent="NXrxL5UkEjWbUpOR8VNK-46">
          <mxGeometry width="30" height="30" as="geometry" />
        </mxCell>
        <mxCell id="NXrxL5UkEjWbUpOR8VNK-48" value="单据类型" style="shape=partialRectangle;overflow=hidden;connectable=0;fillColor=none;top=0;left=0;bottom=0;right=0;align=left;spacingLeft=6;" vertex="1" parent="NXrxL5UkEjWbUpOR8VNK-46">
          <mxGeometry x="30" width="140" height="30" as="geometry" />
        </mxCell>
        <mxCell id="NXrxL5UkEjWbUpOR8VNK-49" value="" style="shape=partialRectangle;collapsible=0;dropTarget=0;pointerEvents=0;fillColor=none;points=[[0,0.5],[1,0.5]];portConstraint=eastwest;top=0;left=0;right=0;bottom=0;" vertex="1" parent="NXrxL5UkEjWbUpOR8VNK-42">
          <mxGeometry y="90" width="170" height="30" as="geometry" />
        </mxCell>
        <mxCell id="NXrxL5UkEjWbUpOR8VNK-50" value="" style="shape=partialRectangle;overflow=hidden;connectable=0;fillColor=none;top=0;left=0;bottom=0;right=0;" vertex="1" parent="NXrxL5UkEjWbUpOR8VNK-49">
          <mxGeometry width="30" height="30" as="geometry" />
        </mxCell>
        <mxCell id="NXrxL5UkEjWbUpOR8VNK-51" value="调拨类型" style="shape=partialRectangle;overflow=hidden;connectable=0;fillColor=none;top=0;left=0;bottom=0;right=0;align=left;spacingLeft=6;" vertex="1" parent="NXrxL5UkEjWbUpOR8VNK-49">
          <mxGeometry x="30" width="140" height="30" as="geometry" />
        </mxCell>
        <mxCell id="NXrxL5UkEjWbUpOR8VNK-52" value="" style="shape=partialRectangle;collapsible=0;dropTarget=0;pointerEvents=0;fillColor=none;points=[[0,0.5],[1,0.5]];portConstraint=eastwest;top=0;left=0;right=0;bottom=0;" vertex="1" parent="NXrxL5UkEjWbUpOR8VNK-42">
          <mxGeometry y="120" width="170" height="30" as="geometry" />
        </mxCell>
        <mxCell id="NXrxL5UkEjWbUpOR8VNK-53" value="" style="shape=partialRectangle;overflow=hidden;connectable=0;fillColor=none;top=0;left=0;bottom=0;right=0;" vertex="1" parent="NXrxL5UkEjWbUpOR8VNK-52">
          <mxGeometry width="30" height="30" as="geometry" />
        </mxCell>
        <mxCell id="NXrxL5UkEjWbUpOR8VNK-54" value="业务类型" style="shape=partialRectangle;overflow=hidden;connectable=0;fillColor=none;top=0;left=0;bottom=0;right=0;align=left;spacingLeft=6;" vertex="1" parent="NXrxL5UkEjWbUpOR8VNK-52">
          <mxGeometry x="30" width="140" height="30" as="geometry" />
        </mxCell>
        <mxCell id="NXrxL5UkEjWbUpOR8VNK-55" value="" style="shape=partialRectangle;collapsible=0;dropTarget=0;pointerEvents=0;fillColor=none;points=[[0,0.5],[1,0.5]];portConstraint=eastwest;top=0;left=0;right=0;bottom=0;" vertex="1" parent="NXrxL5UkEjWbUpOR8VNK-42">
          <mxGeometry y="150" width="170" height="30" as="geometry" />
        </mxCell>
        <mxCell id="NXrxL5UkEjWbUpOR8VNK-56" value="" style="shape=partialRectangle;overflow=hidden;connectable=0;fillColor=none;top=0;left=0;bottom=0;right=0;" vertex="1" parent="NXrxL5UkEjWbUpOR8VNK-55">
          <mxGeometry width="30" height="30" as="geometry" />
        </mxCell>
        <mxCell id="NXrxL5UkEjWbUpOR8VNK-57" value="调出库存组织" style="shape=partialRectangle;overflow=hidden;connectable=0;fillColor=none;top=0;left=0;bottom=0;right=0;align=left;spacingLeft=6;" vertex="1" parent="NXrxL5UkEjWbUpOR8VNK-55">
          <mxGeometry x="30" width="140" height="30" as="geometry" />
        </mxCell>
        <mxCell id="NXrxL5UkEjWbUpOR8VNK-58" value="" style="shape=partialRectangle;collapsible=0;dropTarget=0;pointerEvents=0;fillColor=none;points=[[0,0.5],[1,0.5]];portConstraint=eastwest;top=0;left=0;right=0;bottom=0;" vertex="1" parent="NXrxL5UkEjWbUpOR8VNK-42">
          <mxGeometry y="180" width="170" height="30" as="geometry" />
        </mxCell>
        <mxCell id="NXrxL5UkEjWbUpOR8VNK-59" value="" style="shape=partialRectangle;overflow=hidden;connectable=0;fillColor=none;top=0;left=0;bottom=0;right=0;" vertex="1" parent="NXrxL5UkEjWbUpOR8VNK-58">
          <mxGeometry width="30" height="30" as="geometry" />
        </mxCell>
        <mxCell id="NXrxL5UkEjWbUpOR8VNK-60" value="调入库存组织" style="shape=partialRectangle;overflow=hidden;connectable=0;fillColor=none;top=0;left=0;bottom=0;right=0;align=left;spacingLeft=6;" vertex="1" parent="NXrxL5UkEjWbUpOR8VNK-58">
          <mxGeometry x="30" width="140" height="30" as="geometry" />
        </mxCell>
        <mxCell id="NXrxL5UkEjWbUpOR8VNK-61" value="" style="shape=partialRectangle;collapsible=0;dropTarget=0;pointerEvents=0;fillColor=none;points=[[0,0.5],[1,0.5]];portConstraint=eastwest;top=0;left=0;right=0;bottom=0;" vertex="1" parent="NXrxL5UkEjWbUpOR8VNK-42">
          <mxGeometry y="210" width="170" height="30" as="geometry" />
        </mxCell>
        <mxCell id="NXrxL5UkEjWbUpOR8VNK-62" value="" style="shape=partialRectangle;overflow=hidden;connectable=0;fillColor=none;top=0;left=0;bottom=0;right=0;" vertex="1" parent="NXrxL5UkEjWbUpOR8VNK-61">
          <mxGeometry width="30" height="30" as="geometry" />
        </mxCell>
        <mxCell id="NXrxL5UkEjWbUpOR8VNK-63" value="调出货主" style="shape=partialRectangle;overflow=hidden;connectable=0;fillColor=none;top=0;left=0;bottom=0;right=0;align=left;spacingLeft=6;" vertex="1" parent="NXrxL5UkEjWbUpOR8VNK-61">
          <mxGeometry x="30" width="140" height="30" as="geometry" />
        </mxCell>
        <mxCell id="NXrxL5UkEjWbUpOR8VNK-64" value="" style="shape=partialRectangle;collapsible=0;dropTarget=0;pointerEvents=0;fillColor=none;points=[[0,0.5],[1,0.5]];portConstraint=eastwest;top=0;left=0;right=0;bottom=0;" vertex="1" parent="NXrxL5UkEjWbUpOR8VNK-42">
          <mxGeometry y="240" width="170" height="30" as="geometry" />
        </mxCell>
        <mxCell id="NXrxL5UkEjWbUpOR8VNK-65" value="" style="shape=partialRectangle;overflow=hidden;connectable=0;fillColor=none;top=0;left=0;bottom=0;right=0;" vertex="1" parent="NXrxL5UkEjWbUpOR8VNK-64">
          <mxGeometry width="30" height="30" as="geometry" />
        </mxCell>
        <mxCell id="NXrxL5UkEjWbUpOR8VNK-66" value="调入货主" style="shape=partialRectangle;overflow=hidden;connectable=0;fillColor=none;top=0;left=0;bottom=0;right=0;align=left;spacingLeft=6;" vertex="1" parent="NXrxL5UkEjWbUpOR8VNK-64">
          <mxGeometry x="30" width="140" height="30" as="geometry" />
        </mxCell>
        <mxCell id="NXrxL5UkEjWbUpOR8VNK-67" value="" style="shape=partialRectangle;collapsible=0;dropTarget=0;pointerEvents=0;fillColor=none;points=[[0,0.5],[1,0.5]];portConstraint=eastwest;top=0;left=0;right=0;bottom=0;" vertex="1" parent="NXrxL5UkEjWbUpOR8VNK-42">
          <mxGeometry y="270" width="170" height="30" as="geometry" />
        </mxCell>
        <mxCell id="NXrxL5UkEjWbUpOR8VNK-68" value="" style="shape=partialRectangle;overflow=hidden;connectable=0;fillColor=none;top=0;left=0;bottom=0;right=0;" vertex="1" parent="NXrxL5UkEjWbUpOR8VNK-67">
          <mxGeometry width="30" height="30" as="geometry" />
        </mxCell>
        <mxCell id="NXrxL5UkEjWbUpOR8VNK-69" value="在途归属" style="shape=partialRectangle;overflow=hidden;connectable=0;fillColor=none;top=0;left=0;bottom=0;right=0;align=left;spacingLeft=6;" vertex="1" parent="NXrxL5UkEjWbUpOR8VNK-67">
          <mxGeometry x="30" width="140" height="30" as="geometry" />
        </mxCell>
      </root>
    </mxGraphModel>
  </diagram>
</mxfile>
